<svg width="48" height="48" viewBox="0 0 48 48" fill="none" xmlns="http://www.w3.org/2000/svg">
  <defs>
    <linearGradient id="shieldGrad48" x1="0%" y1="0%" x2="100%" y2="100%">
      <stop offset="0%" style="stop-color:#1e3a8a;stop-opacity:1" />
      <stop offset="50%" style="stop-color:#2563eb;stop-opacity:1" />
      <stop offset="100%" style="stop-color:#3b82f6;stop-opacity:1" />
    </linearGradient>
  </defs>
  
  <!-- Outer shield layer -->
  <path 
    d="M 24 4 L 40.5 12 L 40.5 26.5 Q 40.5 37 24 44 Q 7.5 37 7.5 26.5 L 7.5 12 Z" 
    fill="none" 
    stroke="url(#shieldGrad48)" 
    stroke-width="1.5"
    opacity="0.4"
    stroke-linejoin="miter"
  />
  
  <!-- Middle shield layer -->
  <path 
    d="M 24 6.5 L 38.5 13.5 L 38.5 26.5 Q 38.5 36 24 42 Q 9.5 36 9.5 26.5 L 9.5 13.5 Z" 
    fill="none" 
    stroke="url(#shieldGrad48)" 
    stroke-width="1.5"
    opacity="0.7"
    stroke-linejoin="miter"
  />
  
  <!-- Inner shield layer (main) -->
  <path 
    d="M 24 9 L 36 15 L 36 26.5 Q 36 34.5 24 40 Q 12 34.5 12 26.5 L 12 15 Z" 
    fill="none" 
    stroke="url(#shieldGrad48)" 
    stroke-width="2"
    stroke-linejoin="miter"
  />
  
  <!-- Scan lines - 3 lines for balance -->
  <line 
    x1="13.5" 
    y1="18.5" 
    x2="26.5" 
    y2="18.5" 
    stroke="#3b82f6" 
    stroke-width="1.5" 
    opacity="0.9" 
    stroke-linecap="round"
  />
  
  <line 
    x1="17" 
    y1="23" 
    x2="34.5" 
    y2="23" 
    stroke="#3b82f6" 
    stroke-width="1.5" 
    opacity="0.7" 
    stroke-linecap="round"
  />
  
  <line 
    x1="13.5" 
    y1="27.5" 
    x2="31" 
    y2="27.5" 
    stroke="#3b82f6" 
    stroke-width="1.5" 
    opacity="0.9" 
    stroke-linecap="round"
  />
  
  <line 
    x1="15.5" 
    y1="32.5" 
    x2="28" 
    y2="32.5" 
    stroke="#3b82f6" 
    stroke-width="1.5" 
    opacity="0.6" 
    stroke-linecap="round"
  />
  
  <!-- Accent dot at top -->
  <circle 
    cx="24" 
    cy="9" 
    r="1.5" 
    fill="#3b82f6"
  />
</svg>